#tb 0: 1/10
#media_type 0: video
#codec_id 0: rawvideo
#dimensions 0: 112x80
#sar 0: 0/1
0,          0,          0,        1,    13440, 0x7cb0a22f
0,          1,          1,        1,    13440, 0xe38fa6b7
0,          2,          2,        1,    13440, 0xe003a5c6
0,          3,          3,        1,    13440, 0xe502b2f6
0,          4,          4,        1,    13440, 0xb731ba56
0,          5,          5,        1,    13440, 0x8168e8f5
0,          6,          6,        1,    13440, 0x776d14fb
0,          7,          7,        1,    13440, 0xb5d0049c
0,          8,          8,        1,    13440, 0x3434fc98
0,          9,          9,        1,    13440, 0xd219b282
0,         10,         10,        1,    13440, 0xd2027a7c
0,         11,         11,        1,    13440, 0xd50b5799
0,         12,         12,        1,    13440, 0x091543c4
0,         13,         13,        1,    13440, 0x26374c6b
0,         14,         14,        1,    13440, 0x5b4f5e1e
0,         15,         15,        1,    13440, 0x55ba92da
0,         16,         16,        1,    13440, 0x1ff5cb4d
0,         17,         17,        1,    13440, 0x0ccbda45
0,         18,         18,        1,    13440, 0x5ff80e6a
0,         19,         19,        1,    13440, 0x09df3417
0,         20,         20,        1,    13440, 0xfbed3a0f
0,         21,         21,        1,    13440, 0xd65c3c7f
0,         22,         22,        1,    13440, 0xc8173576
0,         23,         23,        1,    13440, 0xd5e521f8
0,         24,         24,        1,    13440, 0xe440bb55
0,         25,         25,        1,    13440, 0xcbeb95c8
0,         26,         26,        1,    13440, 0x8cd66dba
0,         27,         27,        1,    13440, 0x5f356cbc
0,         28,         28,        1,    13440, 0x54e16ad7
0,         29,         29,        1,    13440, 0x17ed8566
0,         30,         30,        1,    13440, 0x1aa1c121
0,         31,         31,        1,    13440, 0x64e31cac
0,         32,         32,        1,    13440, 0x869677a4
0,         33,         33,        1,    13440, 0x7df6cdba
0,         34,         34,        1,    13440, 0x23f3ef45
0,         35,         35,        1,    13440, 0x176217b4
0,         36,         36,        1,    13440, 0x493897cb
0,         37,         37,        1,    13440, 0x0591296d
0,         38,         38,        1,    13440, 0xb58aeae8
0,         39,         39,        1,    13440, 0x38fd7e58
0,         40,         40,        1,    13440, 0x200c424c
0,         41,         41,        1,    13440, 0x2ee42b14
0,         42,         42,        1,    13440, 0xdcba2ae5
0,         43,         43,        1,    13440, 0xbb102f41
0,         44,         44,        1,    13440, 0x034d4b06
0,         45,         45,        1,    13440, 0x62d99722
0,         46,         46,        1,    13440, 0x174d9ce4
0,         47,         47,        1,    13440, 0xf676bbc8
0,         48,         48,        1,    13440, 0xe2e5bbef
0,         49,         49,        1,    13440, 0x6ef0c2af
0,         50,         50,        1,    13440, 0x8d08a917
0,         51,         51,        1,    13440, 0x030d90e8
0,         52,         52,        1,    13440, 0x4d6f9232
0,         53,         53,        1,    13440, 0xb7a792f6
0,         54,         54,        1,    13440, 0xa0daa330
0,         55,         55,        1,    13440, 0xe9f870a3
0,         56,         56,        1,    13440, 0xed4f36cb
0,         57,         57,        1,    13440, 0x8a6f02c3
0,         58,         58,        1,    13440, 0x663ee03d
0,         59,         59,        1,    13440, 0x2571adef
0,         60,         60,        1,    13440, 0x7533ad99
0,         61,         61,        1,    13440, 0xe3aec2d4
0,         62,         62,        1,    13440, 0x3368e416
0,         63,         63,        1,    13440, 0xe2ecfbf5
0,         64,         64,        1,    13440, 0x45010538
0,         65,         65,        1,    13440, 0xc075222c
0,         66,         66,        1,    13440, 0x5bf45cc4
0,         67,         67,        1,    13440, 0xa06869b5
0,         68,         68,        1,    13440, 0x1ff98e6f
0,         69,         69,        1,    13440, 0x11c88d84
0,         70,         70,        1,    13440, 0x95c275e8
0,         71,         71,        1,    13440, 0x81a68285
0,         72,         72,        1,    13440, 0xb903b402
0,         73,         73,        1,    13440, 0xa9d2eb1c
0,         74,         74,        1,    13440, 0x2c48ff65
0,         75,         75,        1,    13440, 0xc024eff6
0,         76,         76,        1,    13440, 0x41bacff0
0,         77,         77,        1,    13440, 0x2cf9c144
0,         78,         78,        1,    13440, 0x9e67de72
0,         79,         79,        1,    13440, 0x3e74fa36
0,         80,         80,        1,    13440, 0x9b9be609
0,         81,         81,        1,    13440, 0x594eee16
0,         82,         82,        1,    13440, 0x8a7c00d7
0,         83,         83,        1,    13440, 0x56104a2a
0,         84,         84,        1,    13440, 0xd94d97cc
0,         85,         85,        1,    13440, 0x95d09887
0,         86,         86,        1,    13440, 0xe02a769b
0,         87,         87,        1,    13440, 0x847839d0
0,         88,         88,        1,    13440, 0x47441606
0,         89,         89,        1,    13440, 0x19b10373
0,         90,         90,        1,    13440, 0x3ddfbf15
0,         91,         91,        1,    13440, 0xf4fdab37
0,         92,         92,        1,    13440, 0xfe9a92ad
0,         93,         93,        1,    13440, 0xaa387bfb
0,         94,         94,        1,    13440, 0xe57a6c85
0,         95,         95,        1,    13440, 0x68ef5f30
0,         96,         96,        1,    13440, 0x481d76f7
0,         97,         97,        1,    13440, 0x5b0e9192
0,         98,         98,        1,    13440, 0xebc1ac80
0,         99,         99,        1,    13440, 0x13bfef3e
0,        100,        100,        1,    13440, 0xb7b01291
0,        101,        101,        1,    13440, 0xc8c72419
0,        102,        102,        1,    13440, 0x9dca4f32
0,        103,        103,        1,    13440, 0x67635158
0,        104,        104,        1,    13440, 0x6c773e0d
0,        105,        105,        1,    13440, 0x6c2f3777
0,        106,        106,        1,    13440, 0x19574d97
0,        107,        107,        1,    13440, 0xd9f48cc1
0,        108,        108,        1,    13440, 0xd19dc87c
0,        109,        109,        1,    13440, 0xa23cf2ab
0,        110,        110,        1,    13440, 0x3f7611b6
0,        111,        111,        1,    13440, 0x183d2723
0,        112,        112,        1,    13440, 0xf79b3534
0,        113,        113,        1,    13440, 0xcbba4280
0,        114,        114,        1,    13440, 0x03777586
0,        115,        115,        1,    13440, 0xea1aac72
0,        116,        116,        1,    13440, 0xad27cae0
0,        117,        117,        1,    13440, 0xa237e05d
0,        118,        118,        1,    13440, 0xb683f189
0,        119,        119,        1,    13440, 0x2058d3cd
0,        120,        120,        1,    13440, 0x715dae96
0,        121,        121,        1,    13440, 0xd8f88677
0,        122,        122,        1,    13440, 0x45818329
0,        123,        123,        1,    13440, 0x69ad852f
0,        124,        124,        1,    13440, 0x56369125
0,        125,        125,        1,    13440, 0xdfde941b
0,        126,        126,        1,    13440, 0xf1209c90
0,        127,        127,        1,    13440, 0x82e6a6aa
0,        128,        128,        1,    13440, 0xb0ceabd1
0,        129,        129,        1,    13440, 0x05f899a6
0,        130,        130,        1,    13440, 0x9ef95758
0,        131,        131,        1,    13440, 0x63e716d9
0,        132,        132,        1,    13440, 0x7cb0d149
0,        133,        133,        1,    13440, 0x3585b4f1
0,        134,        134,        1,    13440, 0x623ea1fc
0,        135,        135,        1,    13440, 0x762b8c32
0,        136,        136,        1,    13440, 0xc1b96add
0,        137,        137,        1,    13440, 0x95e24baf
0,        138,        138,        1,    13440, 0x74631106
0,        139,        139,        1,    13440, 0x78b5fa14
0,        140,        140,        1,    13440, 0x5f33f34a
0,        141,        141,        1,    13440, 0x7e6ff799
0,        142,        142,        1,    13440, 0x9f8303b0
0,        143,        143,        1,    13440, 0x7c3d2eb9
0,        144,        144,        1,    13440, 0x3c0530d2
0,        145,        145,        1,    13440, 0xe7ecf960
0,        146,        146,        1,    13440, 0x82c3f316
0,        147,        147,        1,    13440, 0x008922b4
0,        148,        148,        1,    13440, 0x0d263f5f
0,        149,        149,        1,    13440, 0x57dc4dd0
0,        150,        150,        1,    13440, 0xbcbbf4f1
0,        151,        151,        1,    13440, 0x62e9a335
0,        152,        152,        1,    13440, 0x65699f37
0,        153,        153,        1,    13440, 0xe4b69939
0,        154,        154,        1,    13440, 0xbd4ebb6c
0,        155,        155,        1,    13440, 0xb7d6e71e
0,        156,        156,        1,    13440, 0xfc0ae5b6
0,        157,        157,        1,    13440, 0xe55ec65c
0,        158,        158,        1,    13440, 0x2095b8fc
0,        159,        159,        1,    13440, 0x479c8408
0,        160,        160,        1,    13440, 0x2981604c
0,        161,        161,        1,    13440, 0xa4e55397
0,        162,        162,        1,    13440, 0x0bc703f8
0,        163,        163,        1,    13440, 0xd43bbf89
0,        164,        164,        1,    13440, 0xdcd6aeca
0,        165,        165,        1,    13440, 0x07b1ad84
0,        166,        166,        1,    13440, 0xfb17d20b
0,        167,        167,        1,    13440, 0x0c4aebd9
0,        168,        168,        1,    13440, 0x826effc4
0,        169,        169,        1,    13440, 0x4ccf2ca4
0,        170,        170,        1,    13440, 0xe4f968f3
0,        171,        171,        1,    13440, 0xe1b4a93a
0,        172,        172,        1,    13440, 0x8597f65e
0,        173,        173,        1,    13440, 0xb4f7184f
